<svg xmlns="http://www.w3.org/2000/svg" viewBox="0 0 96 96" preserveAspectRatio="xMidYMid meet" style="width: 64px; height: 64px; transform-origin: 50% 50%; transform: scaleX(1) scaleY(1) rotate(0deg);"><g id="icon" fill="#ECFE67" style="fill:#ECFE67;stroke:none" stroke="none"><path d="M61.59,88.85H34.41a.76.76,0,0,1-.75-.75V48.81a.76.76,0,0,1,.75-.75H61.59a.76.76,0,0,1,.75.75V88.1A.76.76,0,0,1,61.59,88.85Zm-26.43-1.5H60.84V49.56H35.16Z" fill="#ECFE67" style="fill:#ECFE67;stroke:none" stroke="none"/><path d="M34.41,88.85H10.08a.76.76,0,0,1-.75-.75V68.23a.75.75,0,0,1,.75-.75H34.41a.74.74,0,0,1,.75.75V88.1A.75.75,0,0,1,34.41,88.85Zm-23.58-1.5H33.66V69H10.83Z" fill="#ECFE67" style="fill:#ECFE67;stroke:none" stroke="none"/><path d="M85.92,88.85H61.59a.75.75,0,0,1-.75-.75V72.83a.75.75,0,0,1,.75-.75H85.92a.76.76,0,0,1,.75.75V88.1A.76.76,0,0,1,85.92,88.85Zm-23.58-1.5H85.17V73.58H62.34Z" fill="#ECFE67" style="fill:#ECFE67;stroke:none" stroke="none"/><path d="M34.41,69H7.31a3.15,3.15,0,0,1-3.15-3.15V61.34A3.15,3.15,0,0,1,7.31,58.2h27.1a.74.74,0,0,1,.75.75v9.28A.75.75,0,0,1,34.41,69ZM7.31,59.7a1.65,1.65,0,0,0-1.65,1.64v4.49a1.65,1.65,0,0,0,1.65,1.65H33.66V59.7Z" fill="#ECFE67" style="fill:#ECFE67;stroke:none" stroke="none"/><path d="M88.69,73.58H61.59a.74.74,0,0,1-.75-.75V63.55a.75.75,0,0,1,.75-.75h27.1A3.15,3.15,0,0,1,91.84,66v4.48A3.15,3.15,0,0,1,88.69,73.58Zm-26.35-1.5H88.69a1.65,1.65,0,0,0,1.65-1.65V66a1.65,1.65,0,0,0-1.65-1.65H62.34Z" fill="#ECFE67" style="fill:#ECFE67;stroke:none" stroke="none"/><path d="M64,49.57H32a3.15,3.15,0,0,1-3.14-3.15V40.73A3.15,3.15,0,0,1,32,37.59H64a3.15,3.15,0,0,1,3.14,3.14v5.69A3.15,3.15,0,0,1,64,49.57ZM32,39.09a1.65,1.65,0,0,0-1.64,1.64v5.69A1.65,1.65,0,0,0,32,48.07H64a1.65,1.65,0,0,0,1.64-1.65V40.73A1.64,1.64,0,0,0,64,39.09Z" fill="#ECFE67" style="fill:#ECFE67;stroke:none" stroke="none"/><path d="M93,88.85H3a.75.75,0,0,1,0-1.5H93a.75.75,0,0,1,0,1.5Z" fill="#ECFE67" style="fill:#ECFE67;stroke:none" stroke="none"/><path d="M55.52,32.28a.85.85,0,0,1-.35-.08L48,28.42,40.83,32.2a.75.75,0,0,1-.79-.06.73.73,0,0,1-.3-.73l1.37-8L35.3,17.76a.78.78,0,0,1-.19-.77.76.76,0,0,1,.61-.51l8-1.17,3.59-7.26a.77.77,0,0,1,1.34,0l3.59,7.26,8,1.17a.76.76,0,0,1,.61.51.78.78,0,0,1-.19.77l-5.81,5.66,1.37,8a.73.73,0,0,1-.3.73A.77.77,0,0,1,55.52,32.28ZM48,26.83a.85.85,0,0,1,.35.08l6.18,3.25-1.18-6.88a.76.76,0,0,1,.21-.66l5-4.87-6.91-1a.74.74,0,0,1-.56-.41L48,10.07l-3.09,6.26a.74.74,0,0,1-.56.41l-6.91,1,5,4.87a.76.76,0,0,1,.21.66l-1.18,6.88,6.18-3.25A.85.85,0,0,1,48,26.83Z" fill="#ECFE67" style="fill:#ECFE67;stroke:none" stroke="none"/><path d="M48.09,75.88a.75.75,0,0,1-.75-.75V63.59l-2,2a.75.75,0,1,1-1.06-1.07l3.27-3.27a.75.75,0,0,1,1.28.53V75.13A.75.75,0,0,1,48.09,75.88Z" fill="#ECFE67" style="fill:#ECFE67;stroke:none" stroke="none"/><path d="M51.18,75.88H45a.75.75,0,0,1,0-1.5h6.18a.75.75,0,1,1,0,1.5Z" fill="#ECFE67" style="fill:#ECFE67;stroke:none" stroke="none"/><path d="M63.36,12.08a.72.72,0,0,1-.59-.3.74.74,0,0,1,.14-1L67.38,7.3a.75.75,0,0,1,.91,1.2l-4.47,3.42A.74.74,0,0,1,63.36,12.08Z" fill="#ECFE67" style="fill:#ECFE67;stroke:none" stroke="none"/><path d="M67.84,26.82a.74.74,0,0,1-.46-.16l-4.47-3.43a.74.74,0,0,1-.14-1.05.75.75,0,0,1,1-.14l4.47,3.43a.75.75,0,0,1,.14,1.05A.76.76,0,0,1,67.84,26.82Z" fill="#ECFE67" style="fill:#ECFE67;stroke:none" stroke="none"/><path d="M71.28,17.73H64.69a.75.75,0,0,1,0-1.5h6.59a.75.75,0,0,1,0,1.5Z" fill="#ECFE67" style="fill:#ECFE67;stroke:none" stroke="none"/><path d="M32.64,12.08a.74.74,0,0,1-.46-.16L27.71,8.5a.75.75,0,0,1,.91-1.2l4.47,3.43a.74.74,0,0,1,.14,1A.72.72,0,0,1,32.64,12.08Z" fill="#ECFE67" style="fill:#ECFE67;stroke:none" stroke="none"/><path d="M28.16,26.82a.76.76,0,0,1-.59-.3.75.75,0,0,1,.14-1.05L32.18,22a.75.75,0,0,1,1,.14.74.74,0,0,1-.14,1.05l-4.47,3.43A.74.74,0,0,1,28.16,26.82Z" fill="#ECFE67" style="fill:#ECFE67;stroke:none" stroke="none"/><path d="M31.31,17.73H24.72a.75.75,0,0,1,0-1.5h6.59a.75.75,0,0,1,0,1.5Z" fill="#ECFE67" style="fill:#ECFE67;stroke:none" stroke="none"/></g></svg>